<?xml version="1.0" ?><!DOCTYPE svg  PUBLIC '-//W3C//DTD SVG 1.1//EN'  'http://www.w3.org/Graphics/SVG/1.1/DTD/svg11.dtd'><svg enable-background="new 0 0 512 512" id="Layer_4" version="1.1" viewBox="0 0 512 512" xml:space="preserve" xmlns="http://www.w3.org/2000/svg" xmlns:xlink="http://www.w3.org/1999/xlink"><g><circle cx="256.1" cy="297.3" fill="#60ADE0" r="167.2"/><g><defs><circle cx="256.1" cy="297.3" id="SVGID_1_" r="167.2"/></defs><clipPath id="SVGID_2_"><use overflow="visible" xlink:href="#SVGID_1_"/></clipPath><path clip-path="url(#SVGID_2_)" d="M378.9,465.1c0,6.2-5.1,11.3-11.3,11.3H149c-6.2,0-11.3-5.1-11.3-11.3V217.9    c0-6.2,5.1-11.3,11.3-11.3h187l42.9,43.3V465.1z" fill="#F1F5F6"/></g><path d="M217,319.9c0,2.5-2,4.5-4.5,4.5h-57.3c-2.5,0-4.5-2-4.5-4.5v-1.4c0-2.5,2-4.5,4.5-4.5h57.3   c2.5,0,4.5,2,4.5,4.5V319.9z" fill="#D8D9D8"/><path d="M217,337.9c0,2.5-2,4.5-4.5,4.5h-57.3c-2.5,0-4.5-2-4.5-4.5v-1.4c0-2.5,2-4.5,4.5-4.5h57.3   c2.5,0,4.5,2,4.5,4.5V337.9z" fill="#D8D9D8"/><path d="M217,356c0,2.5-2,4.5-4.5,4.5h-57.3c-2.5,0-4.5-2-4.5-4.5v-1.4c0-2.5,2-4.5,4.5-4.5h57.3   c2.5,0,4.5,2,4.5,4.5V356z" fill="#D8D9D8"/><path d="M217,374.1c0,2.5-2,4.5-4.5,4.5h-57.3c-2.5,0-4.5-2-4.5-4.5v-1.4c0-2.5,2-4.5,4.5-4.5h57.3   c2.5,0,4.5,2,4.5,4.5V374.1z" fill="#D8D9D8"/><path d="M217,392.1c0,2.5-2,4.5-4.5,4.5h-57.3c-2.5,0-4.5-2-4.5-4.5v-1.4c0-2.5,2-4.5,4.5-4.5h57.3   c2.5,0,4.5,2,4.5,4.5V392.1z" fill="#D8D9D8"/><path d="M293.7,319.9c0,2.5-2,4.5-4.5,4.5h-57.3c-2.5,0-4.5-2-4.5-4.5v-1.4c0-2.5,2-4.5,4.5-4.5h57.3   c2.5,0,4.5,2,4.5,4.5V319.9z" fill="#D8D9D8"/><path d="M293.7,337.9c0,2.5-2,4.5-4.5,4.5h-57.3c-2.5,0-4.5-2-4.5-4.5v-1.4c0-2.5,2-4.5,4.5-4.5h57.3   c2.5,0,4.5,2,4.5,4.5V337.9z" fill="#D8D9D8"/><path d="M293.7,356c0,2.5-2,4.5-4.5,4.5h-57.3c-2.5,0-4.5-2-4.5-4.5v-1.4c0-2.5,2-4.5,4.5-4.5h57.3   c2.5,0,4.5,2,4.5,4.5V356z" fill="#D8D9D8"/><path d="M293.7,374.1c0,2.5-2,4.5-4.5,4.5h-57.3c-2.5,0-4.5-2-4.5-4.5v-1.4c0-2.5,2-4.5,4.5-4.5h57.3   c2.5,0,4.5,2,4.5,4.5V374.1z" fill="#D8D9D8"/><path d="M293.7,392.1c0,2.5-2,4.5-4.5,4.5h-57.3c-2.5,0-4.5-2-4.5-4.5v-1.4c0-2.5,2-4.5,4.5-4.5h57.3   c2.5,0,4.5,2,4.5,4.5V392.1z" fill="#D8D9D8"/><path d="M293.7,410.2c0,2.5-2,4.5-4.5,4.5h-57.3c-2.5,0-4.5-2-4.5-4.5v-1.4c0-2.5,2-4.5,4.5-4.5h57.3   c2.5,0,4.5,2,4.5,4.5V410.2z" fill="#D8D9D8"/><path d="M368.2,319.9c0,2.5-2,4.5-4.5,4.5h-57.3c-2.5,0-4.5-2-4.5-4.5v-1.4c0-2.5,2-4.5,4.5-4.5h57.3   c2.5,0,4.5,2,4.5,4.5V319.9z" fill="#D8D9D8"/><path d="M368.2,337.9c0,2.5-2,4.5-4.5,4.5h-57.3c-2.5,0-4.5-2-4.5-4.5v-1.4c0-2.5,2-4.5,4.5-4.5h57.3   c2.5,0,4.5,2,4.5,4.5V337.9z" fill="#D8D9D8"/><path d="M368.2,356c0,2.5-2,4.5-4.5,4.5h-57.3c-2.5,0-4.5-2-4.5-4.5v-1.4c0-2.5,2-4.5,4.5-4.5h57.3   c2.5,0,4.5,2,4.5,4.5V356z" fill="#D8D9D8"/><path d="M368.2,374.1c0,2.5-2,4.5-4.5,4.5h-57.3c-2.5,0-4.5-2-4.5-4.5v-1.4c0-2.5,2-4.5,4.5-4.5h57.3   c2.5,0,4.5,2,4.5,4.5V374.1z" fill="#D8D9D8"/><path d="M368.2,392.1c0,2.5-2,4.5-4.5,4.5h-57.3c-2.5,0-4.5-2-4.5-4.5v-1.4c0-2.5,2-4.5,4.5-4.5h57.3   c2.5,0,4.5,2,4.5,4.5V392.1z" fill="#D8D9D8"/><path d="M150.6,288c0,2.5,2,4.5,4.5,4.5h208.6c2.5,0,4.5-2,4.5-4.5v-3.1c0-2.5-2-4.5-4.5-4.5H155.2   c-2.5,0-4.5,2-4.5,4.5V288z" fill="#D8D9D8"/><path d="M150.6,263.2c0,2.5,2,4.5,4.5,4.5h208.6c2.5,0,4.5-2,4.5-4.5V260c0-2.5-2-4.5-4.5-4.5H155.2   c-2.5,0-4.5,2-4.5,4.5V263.2z" fill="#D8D9D8"/><path d="M150.6,238.3c0,2.5,2,4.5,4.5,4.5h188.2c2.5,0,4.5-2,4.5-4.5v-3.1c0-2.5-2-4.5-4.5-4.5H155.2   c-2.5,0-4.5,2-4.5,4.5V238.3z" fill="#D8D9D8"/><path d="M378.9,249.9c0,0-5.1,0-11.3,0h-20.3c-6.2,0-11.3-5.1-11.3-11.3v-20.7c0-6.2,0-11.3,0-11.3L378.9,249.9z" fill="#B0B0B0"/><g opacity="0.3"><defs><circle cx="256.1" cy="297.3" id="SVGID_3_" opacity="0.3" r="167.2"/></defs><clipPath id="SVGID_4_"><use overflow="visible" xlink:href="#SVGID_3_"/></clipPath><g clip-path="url(#SVGID_4_)"><path d="M385.4,314.8v-24.7h-14.3v24.7c-15,3.3-26.3,16.6-26.3,32.7c0,18.5,15,33.4,33.4,33.4s33.4-15,33.4-33.4     C411.7,331.4,400.4,318,385.4,314.8z" fill="#231F20"/><path d="M364.1,161.7v41.1v70.1v17H392v-77.8v-9.3V161c0-44.3-35.9-80.3-80.3-80.3h-2     c-44.3,0-80.3,35.9-80.3,80.3v51.2c0,1.5,0,3.1,0.1,4.6v95c0,28.8-23.3,52.1-52.1,52.1h-1.3c-28.8,0-52.1-23.3-52.1-52.1l0-51.1     l-7.3,0v-22.2c37.7-3.5,67.1-35.2,67.1-73.7V83.4h-0.2h-14.1h-15.2v-5.8h-14c-7.4,0-13.3,6-13.3,13.3c0,7.4,6,13.3,13.3,13.3h14     v-5.9h15.2v67.2c0,33-26.7,59.7-59.7,59.7c-33,0-59.7-26.7-59.7-59.7V98.4H65v5.9h14c7.4,0,13.3-6,13.3-13.3     c0-7.4-6-13.3-13.3-13.3H65v5.8H50.1H35.8v15v66.3c0,38.6,29.5,70.2,67.1,73.7v22.3l-8.1,0V312c0,44.4,36,80.5,80.5,80.5h2     c44.4,0,80.5-36,80.5-80.5v-38.5l0.3-111.8c0-28.9,23.5-52.4,52.4-52.4h1.3C340.6,109.3,364.1,132.8,364.1,161.7z" fill="#231F20"/></g></g><g><rect fill="#D5D7D8" height="26.9" width="14.3" x="371.1" y="283.3"/><circle cx="378.2" cy="340.6" fill="#D5D7D8" r="33.4"/><circle cx="378.2" cy="340.6" fill="#62B446" r="18.6"/><rect fill="#D5D7D8" height="25" width="13.8" x="102.9" y="229.2"/><circle cx="378.2" cy="340.6" fill="#D5D7D8" r="9.1"/><path d="M311.7,74h-2c-44.3,0-80.3,35.9-80.3,80.3v51.2c0,1.5,0,3.1,0.1,4.6v95c0,28.8-23.3,52.1-52.1,52.1h-1.3    c-28.8,0-52.1-23.3-52.1-52.1l0-51.1l-29.3,0.1v51.3c0,44.4,36,80.5,80.5,80.5h2c44.4,0,80.5-36,80.5-80.5v-38.5L258,155    c0-28.9,23.5-52.4,52.4-52.4h1.3c28.9,0,52.4,23.5,52.4,52.4V196v70.1v17H392v-77.8V196v-41.8C392,109.9,356,74,311.7,74z" fill="#4A5055"/><path d="M169.6,76.6v82.2c0,33-26.7,59.7-59.7,59.7s-59.7-26.7-59.7-59.7V76.6H35.8v81.3    c0,40.9,33.2,74.1,74.1,74.1c40.9,0,74.1-33.2,74.1-74.1V76.6H169.6z" fill="#D5D7D8"/><rect fill="#D5D7D8" height="15" width="29.2" x="35.8" y="76.6"/><rect fill="#D5D7D8" height="15" width="29.2" x="154.4" y="76.6"/><path d="M92.4,84.2c0,7.4-6,13.3-13.3,13.3H65V70.8h14C86.4,70.8,92.4,76.8,92.4,84.2L92.4,84.2z" fill="#62B446"/><path d="M127.1,84.2c0,7.4,6,13.3,13.3,13.3h14V70.8h-14C133,70.8,127.1,76.8,127.1,84.2L127.1,84.2z" fill="#62B446"/></g></g></svg>