<?xml version="1.0" ?><!DOCTYPE svg  PUBLIC '-//W3C//DTD SVG 1.1//EN'  'http://www.w3.org/Graphics/SVG/1.1/DTD/svg11.dtd'><svg enable-background="new 0 0 512 512" id="Layer_11" version="1.1" viewBox="0 0 512 512" xml:space="preserve" xmlns="http://www.w3.org/2000/svg" xmlns:xlink="http://www.w3.org/1999/xlink"><g><circle cx="256.3" cy="297.3" fill="#60ADE0" r="167"/><g><defs><circle cx="256.3" cy="297.3" id="SVGID_1_" r="167"/></defs><clipPath id="SVGID_2_"><use overflow="visible" xlink:href="#SVGID_1_"/></clipPath><rect clip-path="url(#SVGID_2_)" fill="#E5E5E5" height="80.8" width="317.6" x="96.2" y="394.3"/></g><g><defs><circle cx="256.3" cy="297.3" id="SVGID_3_" r="167"/></defs><clipPath id="SVGID_4_"><use overflow="visible" xlink:href="#SVGID_3_"/></clipPath><rect clip-path="url(#SVGID_4_)" fill="#BABCBE" height="29.7" width="487.3" x="43" y="365"/></g><g><defs><circle cx="256.3" cy="297.3" id="SVGID_5_" r="167"/></defs><clipPath id="SVGID_6_"><use overflow="visible" xlink:href="#SVGID_5_"/></clipPath><rect clip-path="url(#SVGID_6_)" fill="#97D9EF" height="62" width="366.4" x="43" y="302.9"/></g><g><defs><circle cx="256.3" cy="297.3" id="SVGID_7_" r="167"/></defs><clipPath id="SVGID_8_"><use overflow="visible" xlink:href="#SVGID_7_"/></clipPath><rect clip-path="url(#SVGID_8_)" fill="#FFF4C6" height="67.1" width="120.9" x="409.4" y="297.9"/></g><g><defs><circle cx="256.3" cy="297.3" id="SVGID_9_" r="167"/></defs><clipPath id="SVGID_10_"><use overflow="visible" xlink:href="#SVGID_9_"/></clipPath><path clip-path="url(#SVGID_10_)" d="M380.8,302.9H207.4c-8.8,0-16,7.1-16,16v86.2c0,8.8,7.1,16,16,16h173.4    c8.8,0,16-7.1,16-16v-86.2C396.8,310.1,389.6,302.9,380.8,302.9z M384.9,405.1c0,2.3-1.8,4.1-4.1,4.1H207.4    c-2.3,0-4.1-1.8-4.1-4.1v-86.2c0-2.3,1.8-4.1,4.1-4.1h173.4c2.3,0,4.1,1.8,4.1,4.1V405.1z" fill="#D1D4D3"/></g><polygon fill="#7EC5BD" points="242.2,379.8 228.9,379.8 228.7,368.2 242.4,368.2  "/><polygon fill="#543B2D" points="216,422.7 242.4,400.6 242.2,379.8 228.9,379.8 207.2,418  "/><polygon fill="#7EC5BD" points="269.7,379.8 283,379.8 283.2,368.2 269.5,368.2  "/><polygon fill="#543B2D" points="295.9,422.7 269.5,400.6 269.7,379.8 283,379.8 304.8,418  "/><path d="M248.9,137.8c0,0,0,14.2,0,16.9s2.4,5.1,6.9,5.1c4.5,0,5.9-3.1,5.9-6.7c0-3.6,0-15.4,0-15.4H248.9z" fill="#F7BFB7"/><path d="M248.9,144.3c1.7,1.1,4.4,2.7,7.2,3.3c2.2,0.5,4.1,0.7,5.6,0.7c0-3.8,0-8.4,0-9.9h-12.8   C248.9,139.4,248.9,141.7,248.9,144.3z" fill="#E1B2AE"/><path d="M244.2,134.8c0,0,1.8,7,13.4,7c11.6,0,10.2,0,15.2,0c5,0,16.2-4.6,16.2-18.5s0-29.2,0-29.2h-45.3l-7.7,14.9   L244.2,134.8z" fill="#F7BFB7"/><path d="M230.1,134.8c0,0,1.8,7,13.4,7c11.6,0,10.2,0,15.2,0c5,0,16.2-4.6,16.2-18.5s0-29.2,0-29.2h-45.3l-7.7,14.9   L230.1,134.8z" fill="#FBC9C6"/><path d="M231.9,122.8c0,0,0,20.4,0,22.9s-1.5,4.5-5.1,4.5c-3.7,0-4.5-2-4.5-7c0-5,0-19.8,0-19.8s-4.5-4.1-6.1-9.6   c-1.6-5.6-1.6-13.7-1.6-13.7s-12.2,0.1-20.7-9.2c-8.5-9.3-6.8-29.7,5.4-39s30.9-5.1,36.7,3.9c5.8,9.1,6.4,16.5,6.4,16.5   s45.6,0,50.1,0c4.5,0,11.4,4.7,11.4,14.6s-9.6,12-13.9,11.7s-5.9-1.4-5.9-1.4s-1.4,1.2-6.4,1.2s-7.2-2.4-7.2-2.4s-3,2.4-7.2,2.4   s-7.7-2-7.7-2s-4.3,8.1-10.6,12.7s-10.3,5.6-10.3,5.6v-7.4c0,0-8.3,0.9-8.3,8.1C226.4,122.6,231.9,122.8,231.9,122.8z" fill="#764E2A"/><path d="M262.7,120.2h8.9c0,0-1.4,4.5-4.4,4.5C264.1,124.7,262.7,120.2,262.7,120.2z" fill="#FFFFFF"/><path d="M212.1,101.7c0,0-0.1-0.2-0.2-0.6c-0.1-0.4-0.2-0.9-0.4-1.7c-0.1-0.7-0.2-1.6-0.2-2.6c0-1,0-2.1,0.2-3.4   c0.1-0.6,0.2-1.3,0.3-1.9c0.1-0.7,0.3-1.3,0.5-2c0.2-0.7,0.4-1.4,0.7-2.1c0.1-0.3,0.3-0.7,0.4-1.1c0.2-0.3,0.3-0.7,0.5-1   c0.3-0.7,0.7-1.4,1.2-2.1c0.2-0.3,0.4-0.7,0.6-1l0.7-1c0.5-0.7,1-1.3,1.6-1.9l0.8-0.9l0.2-0.2l0.1-0.1l0.1-0.1l0.1-0.1l0.4-0.4   c0.6-0.5,1.1-1,1.7-1.5c0.7-0.5,1.3-1,2-1.5c0.7-0.4,1.4-0.9,2-1.3c0.7-0.4,1.4-0.7,2.1-1.1c0.7-0.3,1.4-0.6,2.1-0.9   c0.7-0.3,1.4-0.5,2-0.7c0.7-0.2,1.3-0.4,2-0.5c0.6-0.1,1.3-0.2,1.9-0.3c0.6-0.1,1.2-0.2,1.7-0.2c0.5,0,1.1-0.1,1.6-0.1   c1,0,1.8,0,2.5,0.1c0.7,0.1,1.3,0.1,1.6,0.2c0.4,0.1,0.6,0.1,0.6,0.1c0.7,0.1,1.2,0.9,1.1,1.6c-0.1,0.6-0.6,1-1.1,1.1l-0.2,0   c0,0-0.2,0-0.5,0.1c-0.3,0-0.8,0.1-1.4,0.3c-0.6,0.1-1.3,0.3-2.2,0.5c-0.8,0.2-1.8,0.5-2.7,0.8c-1,0.4-2,0.8-3.1,1.2   c-1.1,0.5-2.2,1.1-3.3,1.7c-0.5,0.3-1.1,0.7-1.6,1c-0.5,0.4-1.1,0.8-1.6,1.1c-0.5,0.4-1,0.8-1.5,1.2c-0.5,0.4-1.1,1-1.6,1.5   l-0.4,0.4l0,0c0.2-0.2,0,0,0.1-0.1l0,0l0,0l-0.1,0.1l-0.2,0.2l-0.7,0.7c-0.5,0.5-0.9,1-1.3,1.5l-0.6,0.8l-0.6,0.8   c-0.4,0.5-0.7,1-1,1.6c-0.3,0.5-0.6,1.1-0.9,1.6c-0.3,0.5-0.6,1.1-0.8,1.6c-0.1,0.3-0.2,0.5-0.3,0.8c-0.1,0.3-0.2,0.5-0.3,0.8   c-0.2,0.5-0.4,1-0.5,1.5c-0.3,1-0.5,1.9-0.6,2.7c-0.1,0.8-0.2,1.5-0.3,2.1c0,0.6-0.1,1.1-0.1,1.4c0,0.3,0,0.4,0,0.5   c0.2,0.8-0.4,1.6-1.2,1.8C213,103.1,212.2,102.6,212.1,101.7z" fill="#00A79C"/><path d="M260.6,112.5h6.1c0,0-1.2-2.6-3-2.6S260.6,112.5,260.6,112.5z" fill="#1C1C4C"/><path d="M268.6,115.9h-10.2c-0.6,0-1.1-0.5-1.1-1.1s0.5-1.1,1.1-1.1h10.2c0.6,0,1.1,0.5,1.1,1.1   S269.2,115.9,268.6,115.9z" fill="#DEA098"/><path d="M280.9,112.5h6.1c0,0-1.2-2.6-3-2.6S280.9,112.5,280.9,112.5z" fill="#1C1C4C"/><path d="M288.9,115.9h-10.2c-0.6,0-1.1-0.5-1.1-1.1s0.5-1.1,1.1-1.1h10.2c0.6,0,1.1,0.5,1.1,1.1   S289.5,115.9,288.9,115.9z" fill="#DEA098"/><path d="M268.6,103.1h-11.9c-0.9,0-1.6-0.7-1.6-1.6c0-0.9,0.7-1.6,1.6-1.6h11.9c0.9,0,1.6,0.7,1.6,1.6   C270.2,102.3,269.5,103.1,268.6,103.1z" fill="#764E2A"/><path d="M289.8,106.9h-11.9c-0.9,0-1.6-0.7-1.6-1.6c0-0.9,0.7-1.6,1.6-1.6h11.9c0.9,0,1.6,0.7,1.6,1.6   C291.4,106.2,290.7,106.9,289.8,106.9z" fill="#764E2A"/><path d="M273.1,109.4c0,0,4.7,5.3,4.7,7.4s-5.7,0.5-5.7,0.5L273.1,109.4z" fill="#DEA098"/><polygon fill="#F7BFB7" points="238,154.7 248.9,150.6 261.7,150.2 273.7,154.7 255.9,170.5  "/><polygon fill="#00A79C" points="282.5,236.6 282.5,229 296,157.2 273.6,153.3 255.9,167.7 238.1,153.3 215.7,157.2 229.2,229    229.2,236.6 199.7,302.9 255.9,302.9 312,302.9  "/><polygon fill="#015D54" points="255.9,230.9 229.2,230.9 229.2,235.9 255.9,235.9 282.5,235.9 282.5,230.9  "/><polygon fill="#98D6D4" points="246.8,181.7 231.4,154.4 238.1,153.3 255.9,167.7  "/><polygon fill="#98D6D4" points="264.9,181.7 280.3,154.4 273.6,153.3 255.9,167.7  "/><path d="M216.8,162.8c0,0-7,52.6-7.7,73.6s2.4,50.9,3.8,54.1c1.4,3.2,3,12.5,6.4,12.5s7.4,0,7.4,0l-0.6-18.7   c0,0-4.1-1.5-5-2.1c-0.9-0.6-0.9-1.7-0.5-6.5c0.5-4.8-0.5-33.9,0.5-43.5c0.9-9.6,3.1-29.1,3.1-29.1L216.8,162.8z" fill="#F7BFB7"/><path d="M295,162.8c0,0,7,52.6,7.7,73.6c0.7,21-2.4,50.9-3.8,54.1c-1.4,3.2-3,12.5-6.4,12.5c-3.4,0-7.4,0-7.4,0   l0.6-18.7c0,0,4.1-1.5,5-2.1c0.9-0.6,0.9-1.7,0.5-6.5c-0.5-4.8,0.5-33.9-0.5-43.5c-0.9-9.6-3.1-29.1-3.1-29.1L295,162.8z" fill="#F7BFB7"/><path d="M228.7,368.2c0,0-2.3-76.6-2.5-83c-0.2-6.4,4.1-11.2,12.3-11.2c8.2,0,12.1,2.7,11.4,12.8   c-0.7,10-7.5,81.4-7.5,81.4H228.7z" fill="#F7BFB7"/><path d="M283.2,368.2c0,0,2.3-76.6,2.5-83c0.2-6.4-4.1-11.2-12.3-11.2s-12.1,2.7-11.4,12.8   c0.7,10,7.5,81.4,7.5,81.4H283.2z" fill="#F7BFB7"/><g><defs><circle cx="256.3" cy="297.3" id="SVGID_11_" r="167"/></defs><clipPath id="SVGID_12_"><use overflow="visible" xlink:href="#SVGID_11_"/></clipPath><path clip-path="url(#SVGID_12_)" d="M512.3,290.3c0,4.2-3.4,7.6-7.6,7.6H417c-4.2,0-7.6-3.4-7.6-7.6l0,0    c0-4.2,3.4-7.6,7.6-7.6h87.6C508.8,282.6,512.3,286.1,512.3,290.3L512.3,290.3z" fill="#97D9EF"/></g><polygon fill="#E1B2AE" points="226.2,284.2 226.8,302.9 225.2,302.9 224.6,283.7  "/><polygon fill="#E1B2AE" points="285.7,284.2 285.2,302.9 286.9,302.9 287.5,283.7  "/></g></svg>