<?xml version="1.0" ?><!DOCTYPE svg  PUBLIC '-//W3C//DTD SVG 1.1//EN'  'http://www.w3.org/Graphics/SVG/1.1/DTD/svg11.dtd'><svg enable-background="new 0 0 512 512" id="Layer_10" version="1.1" viewBox="0 0 512 512" xml:space="preserve" xmlns="http://www.w3.org/2000/svg" xmlns:xlink="http://www.w3.org/1999/xlink"><g><circle cx="256" cy="297.2" fill="#60ADE0" r="167.1"/><g><defs><circle cx="256" cy="297.2" id="SVGID_1_" r="167.1"/></defs><clipPath id="SVGID_2_"><use overflow="visible" xlink:href="#SVGID_1_"/></clipPath><path clip-path="url(#SVGID_2_)" d="M192.4,390.9L167,449.5c0,0,31.5,22.7,86.8,22.4c55.3-0.3,79.3-19.2,79.3-19.2    l-11.3-68.4L192.4,390.9z" fill="#488DBE"/></g><g><defs><circle cx="256" cy="297.2" id="SVGID_3_" r="167.1"/></defs><clipPath id="SVGID_4_"><use overflow="visible" xlink:href="#SVGID_3_"/></clipPath><path clip-path="url(#SVGID_4_)" d="M195.5,393.6c0,0-8,30.2-10,43.1s-2.5,23.8-2.5,23.8s37.2,8.9,80.1,8.9    s62.3-8.9,62.3-8.9l-4.8-43.4l-13-27.2c0,0-48.6,24-66.7,21C222.9,408,195.5,393.6,195.5,393.6z" fill="#6DC9D4"/></g><g><defs><circle cx="256" cy="297.2" id="SVGID_5_" r="167.1"/></defs><clipPath id="SVGID_6_"><use overflow="visible" xlink:href="#SVGID_5_"/></clipPath><path clip-path="url(#SVGID_6_)" d="M327.7,479l-3.8,0.8l-9-51.9h-37l-25.6,18.3l-3.8,36.4l-67.9-5.5    c0,0,4.6-40.5,6.7-51c2.1-10.5,6.2-23,6.2-23h18.7l31.8,15.8l35.5-15.8l41.4,11.4L327.7,479z" fill="#4CBCC6"/></g><polygon fill="#F5BEB6" points="246.7,300.9 282.9,366 293.9,367.4 293.9,297.8  "/><polygon fill="#6DC9D4" points="180,398.2 196.9,403.4 210.1,403.4 236.8,385.8 230.1,309.1 199.8,288 182,312.2 182,363.6  "/><polygon fill="#6DC9D4" points="290.7,302.3 288.9,371.2 334.5,380.3 354.8,350.7 310.1,289.2  "/><path d="M342.1,333.2c0,0-10,3.6-16.2,8.6c-6.2,5-8,12.6-8,12.6l6.4-1c0,0,1.2-5.2,9.4-9.6s12.1-5.6,12.1-5.6   L342.1,333.2z" fill="#FFFFFF"/><polygon fill="#4CBCC6" points="290.4,349 291.5,306.2 303.2,301.3 311.1,291 314.5,294.6 305.3,304.2 305,308.5 298.8,310  "/><polygon fill="#6DC9D4" points="258.3,304.5 288.9,361.9 285.5,391.7 241.8,410.9 227.9,384.2 222.2,293.6 227,286.3  "/><path d="M272.7,330.9c0,0-5.9-9.4-15.1-9.9c-9.1-0.5-31.7,10.7-31.7,10.7l58.1,26.5l1.4,3.5l-42.3-14.9l1.7,45.2   l10.9,8.5l-12.4,6.5l-9-16.4l3.3-5.6l-3.5-40l-14.5-5.2l-4.1-16.6l-18.3,8.1L187,393.3l9.6,9.7l-16.6-5l3.3-78.7l17.8-21.9   l16.6,15.5l4.7-16.6l5.6-5.3l21.6,14.5l12.3,0.6L272.7,330.9z" fill="#4CBCC6"/><path d="M213.5,249.1l10.7-22.8l108.7-51.1v90.2c0,0-16.7,43.8-54.6,43.8c-37.9,0-40-5.7-55.9-24.2   S213.5,249.1,213.5,249.1z" fill="#FBC9C5"/><polygon fill="#FFFFFF" points="246.7,370 248.4,384.3 271.8,381.4 270,367.4  "/><polygon fill="#FFFFFF" points="218.6,319.5 224.6,331.5 285.8,361 287.6,359.4 285.5,355.6 228.8,326.6 224.8,314.9  "/><path d="M215.1,324.9c0,0,5.8-8.7,0.9-13.5c-4.9-4.9-16.7-16.3-16.7-16.3S182,309,182,326.9c0,18,0.6,32.3-2.1,39.9   c-2.7,7.6-4.2,10.5-4.2,10.5s-2.9-8.2-20.9-16.2c-18-8.1-25.6-7.9-23.3-18.1s9.4-18,9.4-18s-2,9.7,1.4,14.3   c3.3,4.6,11.9-3.1,11.9-3.1s-15.2-48.6-7.2-60.6s26.7-20.8,26.7-20.8s-13.9-19.9-12.1-36.7c1.8-16.7,0.8-48.1,18.6-70.3   s28.8-40.6,56.5-43.4s54.8-4.6,77.9,23.6c23.1,28.2,39,39.4,38.2,58.5s-2.7,60-5.8,68.2c-3,8.2-8.5,12.3-8.5,12.3s8.4,11,8.5,19.3   s-6.1,11.1-6.1,11.1l0.8,11.7c0,0-4.4-2.4-8.9-11.9s-11.1-12.6-11.1-12.6l11.1-19.4l-2.1-84.5c0,0-11.7,35.2-26.2,43.2   s-35.3,10-35.3,10l18.2-11.1c0,0-28.4,10.5-41.3,9.9c-12.9-0.6-19.6-2.9-19.6-2.9L216,251.4c0,0,16.4,15.2,17,25.9   c0.6,10.7-7.8,22.1-7.8,22.1S235.1,315.8,215.1,324.9z" fill="#764E2B"/><path d="M199.8,274.6c0,0-12.8,5.7-22.6-11c-9.8-16.7,5-22.6,5-22.6L199.8,274.6z" fill="#FBC9C5"/><path d="M234.9,364.3c0,0-19.1,11.7-28.9,12.9s-24.7-2.8-24.7-2.8l-0.5,7.9c0,0,15,3.8,25.5,2.7   s29.1-14.1,29.1-14.1L234.9,364.3z" fill="#FFFFFF"/><polygon fill="#4CBCC6" points="318.1,330.6 291.3,358.4 295.9,358.4  "/><polygon fill="#FFFFFF" points="309.1,302.3 315.4,327.4 289.3,356.7 289.2,359.1 292.7,358.5 318.7,328.4  "/><polygon fill="#E7E7E7" points="285.1,359.8 277.2,439.4 332.4,426.3 341.1,350.7  "/><path d="M233.3,387.7L212,401.8l24.2,34.9l61.2-40.6c0,0,7-5,2.9-12.9c-4.1-7.9-11.3-5.5-11.3-5.5l-46,27.6   L233.3,387.7z" fill="#FBC9C5"/><path d="M324.6,382.6l16,28.3l12.4-6.4l1.8-13.2l-21.2-18.4c0,0-4.3-1.6-7.5,1.8S324.6,382.6,324.6,382.6z" fill="#FBC9C5"/><path d="M279.4,285.1h16.4c0,0-2.5,8.4-8.2,8.4C281.9,293.4,279.4,285.1,279.4,285.1z" fill="#FFFFFF"/><path d="M256.8,256.3H268c0,0-2.3-4.8-5.6-4.8S256.8,256.3,256.8,256.3z" fill="#1C1C4B"/><path d="M271.9,266.4H253c-1.1,0-2-0.9-2-2s0.9-2,2-2h18.9c1.1,0,2,0.9,2,2S273,266.4,271.9,266.4z" fill="#DEA098"/><path d="M324.8,264.6h-18.9c-1.1,0-2-0.9-2-2c0-1.1,0.9-2,2-2h18.9c1.1,0,2,0.9,2,2   C326.8,263.7,325.9,264.6,324.8,264.6z" fill="#DEA098"/><path d="M305.6,252.1h11.3c0,0-2.3-4.8-5.6-4.8S305.6,252.1,305.6,252.1z" fill="#1C1C4B"/><path d="M266.6,245.7h-22c-1.7,0-3-1.3-3-3s1.3-3,3-3h22c1.7,0,3,1.3,3,3S268.2,245.7,266.6,245.7z" fill="#764E2B"/><path d="M323.2,239.2h-22c-1.7,0-3-1.3-3-3s1.3-3,3-3h22c1.7,0,3,1.3,3,3S324.8,239.2,323.2,239.2z" fill="#764E2B"/><path d="M290.5,258.3c0,0,8.6,9.8,8.6,13.8c0,4-10.5,1-10.5,1L290.5,258.3z" fill="#DEA098"/><path d="M490.4,146.9c0-39.4-31.9-71.3-71.3-71.3s-71.3,31.9-71.3,71.3c0,19.5,7.8,37.1,20.4,49.9c0,0,0,0,0,0   c10.8,11.9,6.5,34.6,6.5,34.6s7.4-4.4,13.7-6.5c6.3-2.1,24.5-3.6,44-8c0,0,0,0,0.1,0C465.5,210.6,490.4,181.6,490.4,146.9z" fill="#E5E5E5"/><path d="M491.1,137.1c0-39.4-31.9-71.3-71.3-71.3s-71.3,31.9-71.3,71.3c0,19.5,7.8,37.1,20.4,49.9c0,0,0,0,0,0   c10.8,11.9,6.5,34.6,6.5,34.6s7.4-4.4,13.7-6.5c6.3-2.1,24.5-3.6,44-8c0,0,0,0,0.1,0C466.2,200.8,491.1,171.8,491.1,137.1z" fill="#62B446"/><rect fill="#FFFFFF" height="7.5" width="41.7" x="425.5" y="118.8"/><rect fill="#FFFFFF" height="7.5" width="41.7" x="372.1" y="118.8"/><rect fill="#FFFFFF" height="7.5" width="95.1" x="372.1" y="135.4"/><rect fill="#FFFFFF" height="7.5" width="63.2" x="372.1" y="151.9"/><rect fill="#FFFFFF" height="7.5" width="20.8" x="446.3" y="151.9"/></g></svg>